<svg width="512" height="512" viewBox="0 0 512 512" fill="none" xmlns="http://www.w3.org/2000/svg">
<rect width="512" height="512" fill="#0BB1CB"/>
<g clip-path="url(#clip0_270_24139)">
<path d="M243.94 186.055C227.999 158.984 229.77 125.216 246.49 105.019C263.21 84.8224 292.045 77.4169 320.561 86.0626C342.523 92.724 350.068 102.681 350.175 125.641C350.387 181.271 349.785 236.972 349.785 292.46C349.785 324.811 366.08 361.378 384.854 394.259C395.198 382 400.512 370.129 400.441 355.283C400.181 275.015 400.205 194.724 400.512 114.409C400.512 96.6925 392.648 83.3342 382.268 70.1531C382.339 70.2594 357.826 39.9996 302.176 39.9996C290.361 39.8641 278.559 40.8488 266.93 42.9406C202.459 56.228 158.782 137.795 198.456 206.535C225.638 253.779 252.477 301.023 278.974 348.267C302.07 389.689 324.493 431.358 346.916 472H402.424L243.94 186.055Z" fill="white"/>
<path d="M163.74 219.717L189.599 258.303C184.375 263.073 179.63 268.342 175.43 274.036C161.898 293.382 153.113 313.012 161.615 335.618C170.506 358.898 187.509 374.843 214.396 375.374C234.871 375.729 255.381 375.374 275.856 375.374L303.628 427.673C261.332 427.673 227.786 431.004 191.937 423.847C152.476 416.051 116.662 371.796 110.393 325.626C108.059 304.7 111.86 283.546 121.332 264.742C130.804 245.937 145.538 230.294 163.74 219.717V219.717Z" fill="white"/>
</g>
<defs>
<clipPath id="clip0_270_24139">
<rect width="292.846" height="432" fill="white" transform="translate(109.577 40)"/>
</clipPath>
</defs>
</svg>
